<?xml version="1.0" standalone="no"?>
<!DOCTYPE svg PUBLIC "-//W3C//DTD SVG 20010904//EN"
 "http://www.w3.org/TR/2001/REC-SVG-20010904/DTD/svg10.dtd">
<svg version="1.0" xmlns="http://www.w3.org/2000/svg"
 width="260.000000pt" height="260.000000pt" viewBox="0 0 260.000000 260.000000"
 preserveAspectRatio="xMidYMid meet">
<metadata>
Created by potrace 1.11, written by Peter Selinger 2001-2013
</metadata>
<g transform="translate(0.000000,260.000000) scale(0.100000,-0.100000)"
fill="#000000" stroke="none">
<path d="M1587 1544 c-4 -4 -7 -38 -7 -76 l0 -69 -26 20 c-35 28 -93 27 -129
-1 -70 -55 -73 -183 -5 -243 29 -26 109 -28 137 -2 25 22 29 22 36 -4 3 -12
12 -19 19 -17 10 4 13 47 13 199 0 167 -2 194 -15 197 -9 1 -19 0 -23 -4z
m-32 -169 c21 -20 25 -34 25 -80 0 -46 -4 -60 -25 -80 -32 -33 -78 -33 -110 0
-21 20 -25 34 -25 80 0 46 4 60 25 80 15 16 36 25 55 25 19 0 40 -9 55 -25z"/>
<path d="M1971 1540 c-19 -11 -9 -45 14 -45 13 0 21 8 23 21 3 23 -17 37 -37
24z"/>
<path d="M2080 1535 c-15 -18 -6 -45 13 -45 8 0 20 7 27 15 10 12 10 18 0 30
-16 19 -24 19 -40 0z"/>
<path d="M1243 1503 c-7 -3 -13 -17 -13 -33 0 -19 -6 -29 -20 -33 -11 -3 -20
-12 -20 -21 0 -9 8 -16 20 -16 19 0 20 -7 20 -100 0 -94 2 -103 25 -126 28
-28 68 -29 73 -2 2 11 -5 18 -20 20 -22 3 -23 7 -26 106 l-3 102 26 0 c33 0
31 33 -3 38 -17 3 -22 10 -22 32 0 28 -14 41 -37 33z"/>
<path d="M490 1430 c0 -21 72 -266 81 -275 20 -21 44 14 69 104 15 50 30 93
35 94 5 1 21 -39 35 -89 15 -50 30 -96 34 -102 11 -18 34 -15 45 6 15 29 75
262 68 268 -18 18 -36 -13 -57 -98 -13 -51 -26 -100 -31 -108 -10 -19 -10 -17
-43 104 -40 143 -60 143 -100 -3 -16 -56 -32 -104 -37 -106 -8 -6 -10 -2 -34
105 -10 41 -22 83 -27 93 -9 18 -38 24 -38 7z"/>
<path d="M917 1433 c-4 -3 -7 -89 -7 -190 0 -176 1 -183 20 -183 18 0 20 7 20
65 0 36 3 65 6 65 3 0 17 -9 31 -20 48 -38 129 -17 159 41 20 40 20 128 0 168
-30 58 -111 79 -159 41 -14 -11 -27 -20 -30 -20 -3 0 -7 9 -10 20 -5 20 -18
26 -30 13z m158 -39 c41 -16 58 -109 30 -163 -25 -50 -91 -57 -124 -15 -39 49
-36 120 6 166 16 18 57 23 88 12z"/>
<path d="M1688 1434 c-4 -3 13 -35 38 -69 24 -35 44 -66 44 -69 0 -3 -20 -34
-45 -69 -24 -35 -42 -67 -38 -71 16 -16 35 -2 69 49 20 30 38 55 39 55 1 0 19
-25 39 -55 33 -51 53 -65 69 -49 3 3 -14 37 -39 74 l-45 67 45 65 c25 36 43
68 39 72 -16 15 -35 2 -65 -44 -18 -27 -37 -49 -43 -49 -5 0 -23 21 -40 47
-28 44 -53 61 -67 46z"/>
<path d="M1965 1428 c-3 -8 -4 -72 -3 -144 3 -121 4 -129 23 -129 19 0 20 7
20 140 0 125 -2 140 -18 143 -9 2 -19 -3 -22 -10z"/>
<path d="M2082 1298 c3 -119 5 -143 18 -143 13 0 15 22 15 140 0 126 -2 140
-18 143 -16 3 -17 -7 -15 -140z"/>
</g>
</svg>
